<svg xmlns="http://www.w3.org/2000/svg" viewBox="0 0 192 192">
  <defs>
    <linearGradient id="g" x1="0%" x2="100%" y1="0%" y2="100%">
      <stop offset="0%" stop-color="#f25b87" />
      <stop offset="100%" stop-color="#df3f72" />
    </linearGradient>
  </defs>
  <rect width="192" height="192" rx="48" fill="#120d13" />
  <rect x="24" y="24" width="144" height="144" rx="36" fill="url(#g)" />
  <path d="M96 48c5 18 8 21 26 26-18 5-21 8-26 26-5-18-8-21-26-26 18-5 21-8 26-26Z" fill="#fff7fb"/>
  <path d="M128 92c3 11 5 13 16 16-11 3-13 5-16 16-3-11-5-13-16-16 11-3 13-5 16-16Z" fill="#fff7fb" opacity=".92"/>
  <path d="M68 104c3 10 5 12 14 14-9 2-11 4-14 14-2-10-4-12-14-14 10-2 12-4 14-14Z" fill="#fff7fb" opacity=".92"/>
</svg>
